<svg width="46" height="46" viewBox="0 0 46 46" fill="none" xmlns="http://www.w3.org/2000/svg">
<path fill-rule="evenodd" clip-rule="evenodd" d="M0.0834961 23C0.0834961 17.9726 1.70237 13.3233 4.44727 9.54498C4.5131 9.43616 4.58926 9.33279 4.67532 9.23651C8.85689 3.67799 15.5087 0.083374 23.0002 0.083374C32.3503 0.083374 40.3926 5.68306 43.9564 13.7118C43.9975 13.7913 44.0336 13.8737 44.0643 13.9587C45.2565 16.7326 45.9168 19.7892 45.9168 23C45.9168 35.6566 35.6567 45.9167 23.0002 45.9167C22.1822 45.9167 21.3743 45.8739 20.5784 45.7903C20.483 45.7863 20.3875 45.7758 20.2925 45.7584C8.91211 44.4189 0.0834961 34.7405 0.0834961 23ZM23.0002 4.25004C17.2954 4.25004 12.1857 6.79772 8.74681 10.8174L13.4205 18.9022C15.012 15.1865 18.7021 12.5834 23.0002 12.5834H38.5928C35.2292 7.55843 29.501 4.25004 23.0002 4.25004ZM24.224 41.7107C34.0089 41.0803 41.7502 32.9442 41.7502 23C41.7502 20.8086 41.3742 18.7049 40.6833 16.75H31.3343C32.6419 18.491 33.4168 20.655 33.4168 23C33.4168 25.0507 32.8243 26.9629 31.8011 28.5749L24.224 41.7107ZM24.2401 33.3437L19.5715 41.4373C10.8535 39.8263 4.25016 32.1843 4.25016 23C4.25016 20.0214 4.94473 17.2049 6.18075 14.7039L13.7663 27.8258C15.5067 31.1491 18.9886 33.4167 23.0002 33.4167C23.4197 33.4167 23.8335 33.3919 24.2401 33.3437ZM28.4937 25.983C28.4621 26.029 28.432 26.0766 28.4036 26.1258L28.246 26.3989C27.1319 28.115 25.1986 29.25 23.0002 29.25C20.7457 29.25 18.77 28.0564 17.6707 26.2666C17.6476 26.2185 17.6225 26.171 17.5954 26.124L17.4311 25.8399C16.9957 24.9878 16.7502 24.0226 16.7502 23C16.7502 19.5483 19.5484 16.75 23.0002 16.75C26.4519 16.75 29.2502 19.5483 29.2502 23C29.2502 24.0803 28.9761 25.0965 28.4937 25.983Z" fill="#2D3648"/>
</svg>
