<svg width="28" height="46" viewBox="0 0 28 46" fill="none" xmlns="http://www.w3.org/2000/svg">
<path fill-rule="evenodd" clip-rule="evenodd" d="M19.25 0.083374C15.9348 0.083374 12.7554 1.40033 10.4112 3.74454C8.06696 6.08874 6.75 9.26817 6.75 12.5834V16.75H2.58333C1.43274 16.75 0.5 17.6828 0.5 18.8334V27.1667C0.5 28.3173 1.43274 29.25 2.58333 29.25H6.75V43.8334C6.75 44.984 7.68274 45.9167 8.83333 45.9167H17.1667C18.3173 45.9167 19.25 44.984 19.25 43.8334V29.25H23.4167C24.3726 29.25 25.2059 28.5994 25.4378 27.672L27.5211 19.3387C27.6767 18.7163 27.5369 18.0569 27.1421 17.5513C26.7473 17.0456 26.1415 16.75 25.5 16.75H19.25V12.5834H25.5C26.6506 12.5834 27.5833 11.6506 27.5833 10.5V2.16671C27.5833 1.01611 26.6506 0.083374 25.5 0.083374H19.25ZM13.3574 6.69082C14.9202 5.12801 17.0399 4.25004 19.25 4.25004H23.4167V8.41671H19.25C18.1449 8.41671 17.0851 8.8557 16.3037 9.6371C15.5223 10.4185 15.0833 11.4783 15.0833 12.5834V18.8334C15.0833 19.984 16.0161 20.9167 17.1667 20.9167H22.8317L21.79 25.0834H17.1667C16.0161 25.0834 15.0833 26.0161 15.0833 27.1667V41.75H10.9167V27.1667C10.9167 26.0161 9.98393 25.0834 8.83333 25.0834H4.66667V20.9167H8.83333C9.98393 20.9167 10.9167 19.984 10.9167 18.8334V12.5834C10.9167 10.3732 11.7946 8.25362 13.3574 6.69082Z" fill="#2D3648"/>
</svg>
