<svg width="46" height="46" viewBox="0 0 46 46" fill="none" xmlns="http://www.w3.org/2000/svg">
<path fill-rule="evenodd" clip-rule="evenodd" d="M18.2926 13.6638C20.2374 12.6547 22.4508 12.2845 24.6182 12.6059C26.8289 12.9337 28.8756 13.9639 30.4559 15.5442C32.0362 17.1245 33.0664 19.1712 33.3942 21.3819C33.7156 23.5493 33.3454 25.7627 32.3363 27.7075C31.3272 29.6523 29.7305 31.2294 27.7734 32.2144C25.8163 33.1995 23.5985 33.5424 21.4353 33.1943C19.2721 32.8462 17.2738 31.8249 15.7245 30.2756C14.1752 28.7263 13.1539 26.728 12.8058 24.5648C12.4577 22.4016 12.8006 20.1838 13.7857 18.2267C14.7707 16.2696 16.3478 14.6729 18.2926 13.6638ZM24.007 16.7275C22.7066 16.5347 21.3785 16.7568 20.2116 17.3623C19.0448 17.9677 18.0985 18.9257 17.5075 20.1C16.9164 21.2742 16.7107 22.6049 16.9196 23.9028C17.1284 25.2007 17.7412 26.3997 18.6708 27.3293C19.6003 28.2589 20.7994 28.8717 22.0973 29.0805C23.3952 29.2894 24.7259 29.0836 25.9001 28.4926C27.0744 27.9016 28.0324 26.9553 28.6378 25.7885C29.2433 24.6216 29.4654 23.2935 29.2726 21.9931C29.0759 20.6667 28.4578 19.4387 27.5096 18.4905C26.5614 17.5423 25.3334 16.9242 24.007 16.7275Z" fill="#2D3648"/>
<path d="M34.4585 9.45837C33.3079 9.45837 32.3752 10.3911 32.3752 11.5417C32.3752 12.6923 33.3079 13.625 34.4585 13.625H34.4793C35.6299 13.625 36.5627 12.6923 36.5627 11.5417C36.5627 10.3911 35.6299 9.45837 34.4793 9.45837H34.4585Z" fill="#2D3648"/>
<path fill-rule="evenodd" clip-rule="evenodd" d="M0.0834961 12.5834C0.0834961 5.67981 5.67994 0.083374 12.5835 0.083374H33.4168C40.3204 0.083374 45.9168 5.67981 45.9168 12.5834V33.4167C45.9168 40.3203 40.3204 45.9167 33.4168 45.9167H12.5835C5.67994 45.9167 0.0834961 40.3203 0.0834961 33.4167V12.5834ZM12.5835 4.25004C7.98112 4.25004 4.25016 7.981 4.25016 12.5834V33.4167C4.25016 38.0191 7.98112 41.75 12.5835 41.75H33.4168C38.0192 41.75 41.7502 38.0191 41.7502 33.4167V12.5834C41.7502 7.981 38.0192 4.25004 33.4168 4.25004H12.5835Z" fill="#2D3648"/>
</svg>
