<?xml version="1.0" encoding="UTF-8"?>
<!DOCTYPE svg PUBLIC "-//W3C//DTD SVG 1.1//EN" "http://www.w3.org/Graphics/SVG/1.1/DTD/svg11.dtd">
<svg xmlns="http://www.w3.org/2000/svg" version="1.1" width="404px" height="294px" style="shape-rendering:geometricPrecision; text-rendering:geometricPrecision; image-rendering:optimizeQuality; fill-rule:evenodd; clip-rule:evenodd" xmlns:xlink="http://www.w3.org/1999/xlink">
<g><path style="opacity:1" fill="#0faceb" d="M 212.5,28.5 C 257.954,36.2952 282.621,63.2952 286.5,109.5C 285.964,123.311 282.464,136.311 276,148.5C 275.439,149.022 274.772,149.355 274,149.5C 270.251,148.308 266.751,146.642 263.5,144.5C 279.977,110.386 274.31,80.5527 246.5,55C 235.021,46.3372 222.021,41.5039 207.5,40.5C 205.777,39.1999 203.61,38.5332 201,38.5C 196.62,40.0251 190.786,41.0251 183.5,41.5C 183.5,40.5 183.5,39.5 183.5,38.5C 182.167,38.5 180.833,38.5 179.5,38.5C 180.155,33.5 182.822,31.8334 187.5,33.5C 188.386,32.675 188.719,31.675 188.5,30.5C 196.487,29.7028 204.487,29.0361 212.5,28.5 Z"/></g>
<g><path style="opacity:1" fill="#22abe1" d="M 212.5,28.5 C 204.487,29.0361 196.487,29.7028 188.5,30.5C 188.719,31.675 188.386,32.675 187.5,33.5C 182.822,31.8334 180.155,33.5 179.5,38.5C 180.833,38.5 182.167,38.5 183.5,38.5C 183.5,39.5 183.5,40.5 183.5,41.5C 190.786,41.0251 196.62,40.0251 201,38.5C 203.61,38.5332 205.777,39.1999 207.5,40.5C 193.77,40.0057 181.103,43.339 169.5,50.5C 168.417,49.635 168.251,48.635 169,47.5C 173.481,41.0213 178.648,35.1879 184.5,30C 193.917,27.8242 203.25,27.3242 212.5,28.5 Z"/></g>
<g><path style="opacity:1" fill="#1c75b9" d="M 218.5,83.5 C 230.472,110.753 223.805,132.253 198.5,148C 173.427,157.186 151.261,152.686 132,134.5C 128.542,129.236 125.375,123.903 122.5,118.5C 120.276,84.1096 133.609,57.7762 162.5,39.5C 162.833,39.6667 163.167,39.8333 163.5,40C 149.978,57.5496 145.812,77.0496 151,98.5C 157.528,114.383 169.195,123.383 186,125.5C 205.998,123.001 217.165,111.668 219.5,91.5C 218.905,88.8599 218.572,86.1933 218.5,83.5 Z"/></g>
<g><path style="opacity:1" fill="#07aced" d="M 122.5,118.5 C 125.375,123.903 128.542,129.236 132,134.5C 151.261,152.686 173.427,157.186 198.5,148C 223.805,132.253 230.472,110.753 218.5,83.5C 216.496,81.1619 215.329,78.4952 215,75.5C 226.017,81.86 233.35,91.1933 237,103.5C 238.343,113.223 240.009,122.89 242,132.5C 246.592,145.928 255.759,154.261 269.5,157.5C 269.649,158.552 269.483,159.552 269,160.5C 242.694,190.454 210.528,198.954 172.5,186C 143.569,172.657 126.902,150.157 122.5,118.5 Z"/></g>
<g><path style="opacity:1" fill="#1cb0e7" d="M 91.5,216.5 C 103.198,216.208 114.865,216.541 126.5,217.5C 129.92,219.002 130.254,221.002 127.5,223.5C 122.565,224.448 117.565,224.781 112.5,224.5C 112.667,237.837 112.5,251.171 112,264.5C 110,267.167 108,267.167 106,264.5C 105.5,251.171 105.333,237.837 105.5,224.5C 100.041,224.897 94.7081,224.397 89.5,223C 87.9329,220.094 88.5995,217.928 91.5,216.5 Z"/></g>
<g><path style="opacity:1" fill="#0cb1ed" d="M 304.5,217.5 C 304.5,219.167 304.5,220.833 304.5,222.5C 299.203,223.275 293.87,223.608 288.5,223.5C 288.207,235.531 288.54,247.531 289.5,259.5C 288.653,261.871 287.32,263.871 285.5,265.5C 284.508,265.672 283.842,265.338 283.5,264.5C 284.473,251.179 284.639,237.846 284,224.5C 278.803,222.58 273.303,221.913 267.5,222.5C 267.5,220.833 267.5,219.167 267.5,217.5C 279.857,216.232 292.19,216.232 304.5,217.5 Z"/></g>
<g><path style="opacity:1" fill="#19ace6" d="M 138.5,217.5 C 139.117,217.611 139.617,217.944 140,218.5C 140.333,232.167 140.667,245.833 141,259.5C 141.725,258.941 142.558,258.608 143.5,258.5C 150.805,259.265 158.138,259.765 165.5,260C 166.833,261.667 166.833,263.333 165.5,265C 155.786,265.192 146.12,265.692 136.5,266.5C 135.261,266.058 134.261,265.391 133.5,264.5C 133.214,249.131 133.547,233.798 134.5,218.5C 136.099,218.768 137.432,218.434 138.5,217.5 Z"/></g>
<g><path style="opacity:1" fill="#1face6" d="M 248.5,255.5 C 241.448,247.757 234.614,239.757 228,231.5C 227.667,242.167 227.333,252.833 227,263.5C 225.196,267.068 222.863,267.402 220,264.5C 219.176,248.926 219.343,233.426 220.5,218C 222.5,217.333 224.5,217.333 226.5,218C 235.667,229.167 244.833,240.333 254,251.5C 254.333,240.5 254.667,229.5 255,218.5C 257.139,217.231 259.305,217.231 261.5,218.5C 262.65,233.789 262.817,249.122 262,264.5C 259.778,266.278 257.612,266.445 255.5,265C 252.924,261.937 250.591,258.771 248.5,255.5 Z"/></g>
<g><path style="opacity:0.802" fill="#2fabda" d="M 313.5,217.5 C 313.217,218.289 312.717,218.956 312,219.5C 311.5,234.163 311.333,248.83 311.5,263.5C 312.833,263.5 314.167,263.5 315.5,263.5C 316.765,248.141 316.765,232.807 315.5,217.5C 316.117,217.611 316.617,217.944 317,218.5C 317.667,233.833 317.667,249.167 317,264.5C 315,267.167 313,267.167 311,264.5C 310.333,249.167 310.333,233.833 311,218.5C 311.671,217.748 312.504,217.414 313.5,217.5 Z"/></g>
<g><path style="opacity:1" fill="#06abea" d="M 313.5,217.5 C 314.167,217.5 314.833,217.5 315.5,217.5C 316.765,232.807 316.765,248.141 315.5,263.5C 314.167,263.5 312.833,263.5 311.5,263.5C 311.333,248.83 311.5,234.163 312,219.5C 312.717,218.956 313.217,218.289 313.5,217.5 Z"/></g>
<g><path style="opacity:0.157" fill="#42a9cc" d="M 138.5,217.5 C 137.432,218.434 136.099,218.768 134.5,218.5C 133.547,233.798 133.214,249.131 133.5,264.5C 132.339,249.339 132.172,234.006 133,218.5C 134.7,216.701 136.533,216.368 138.5,217.5 Z"/></g>
<g><path style="opacity:1" fill="#1dace5" d="M 331.5,216.5 C 338.391,215.901 345.058,216.735 351.5,219C 355.26,221.17 356.26,224.17 354.5,228C 353.167,228.667 351.833,228.667 350.5,228C 344.647,222.44 338.314,221.607 331.5,225.5C 328.632,228.995 328.965,232.162 332.5,235C 337.772,236.869 343.106,238.535 348.5,240C 359.322,245.778 360.988,253.445 353.5,263C 344.167,267.667 334.833,267.667 325.5,263C 322.42,261.289 321.254,258.789 322,255.5C 322.739,254.426 323.739,253.759 325,253.5C 331.906,260.015 339.739,261.515 348.5,258C 351.077,254.595 351.077,251.262 348.5,248C 342.679,245.501 336.679,243.501 330.5,242C 322.905,238.527 320.405,232.694 323,224.5C 325.074,220.923 327.907,218.256 331.5,216.5 Z"/></g>
<g><path style="opacity:1" fill="#03abef" d="M 106.5,233.5 C 107.833,233.5 109.167,233.5 110.5,233.5C 110.5,243.5 110.5,253.5 110.5,263.5C 109.167,263.5 107.833,263.5 106.5,263.5C 106.5,253.5 106.5,243.5 106.5,233.5 Z"/></g>
<g><path style="opacity:1" fill="#03abef" d="M 248.5,255.5 C 248.47,254.503 248.97,253.836 250,253.5C 253.121,254.94 255.121,253.94 256,250.5C 256.5,239.839 256.667,229.172 256.5,218.5C 257.822,218.33 258.989,218.663 260,219.5C 260.5,232.162 260.667,244.829 260.5,257.5C 257.722,257.022 255.722,258.022 254.5,260.5C 253.614,259.675 253.281,258.675 253.5,257.5C 251.486,257.608 249.82,256.942 248.5,255.5 Z"/></g>
<g><path style="opacity:1" fill="#2ba6d6" d="M 267.5,217.5 C 267.5,219.167 267.5,220.833 267.5,222.5C 273.303,221.913 278.803,222.58 284,224.5C 284.639,237.846 284.473,251.179 283.5,264.5C 282.504,251.344 282.171,238.01 282.5,224.5C 277.821,224.666 273.155,224.499 268.5,224C 266.332,222.03 265.998,219.863 267.5,217.5 Z"/></g>
<g><path style="opacity:0.933" fill="#36abd8" d="M 304.5,217.5 C 307.134,219.54 307.134,221.707 304.5,224C 299.845,224.499 295.179,224.666 290.5,224.5C 290.667,237.504 290.5,250.504 290,263.5C 289.009,264.939 287.676,265.939 286,266.5C 285.601,266.272 285.435,265.938 285.5,265.5C 287.32,263.871 288.653,261.871 289.5,259.5C 288.54,247.531 288.207,235.531 288.5,223.5C 293.87,223.608 299.203,223.275 304.5,222.5C 304.5,220.833 304.5,219.167 304.5,217.5 Z"/></g>
<g><path style="opacity:1" fill="#19ace8" d="M 69.5,217.5 C 71.604,217.201 73.604,217.534 75.5,218.5C 82.2528,232.837 88.5861,247.337 94.5,262C 93.4193,266.134 91.2527,266.967 88,264.5C 86.5455,261.088 84.7121,257.921 82.5,255C 76.6385,254.048 70.9718,254.715 65.5,257C 61.2171,259.615 57.2171,262.615 53.5,266C 50,266.5 48.5,265 49,261.5C 55.9363,246.846 62.7697,232.18 69.5,217.5 Z M 71.5,230.5 C 74.6479,235.462 77.3146,240.796 79.5,246.5C 73.7541,247.749 68.0874,248.915 62.5,250C 65.6403,243.554 68.6403,237.054 71.5,230.5 Z"/></g>
<g><path style="opacity:1" fill="#18abe7" d="M 190.5,217.5 C 192.604,217.201 194.604,217.534 196.5,218.5C 203.097,232.458 209.597,246.458 216,260.5C 216.72,262.112 216.554,263.612 215.5,265C 213.5,265.667 211.5,265.667 209.5,265C 208.145,261.788 206.645,258.622 205,255.5C 197.538,253.325 190.371,254.492 183.5,259C 180.308,261.692 176.975,264.192 173.5,266.5C 170.911,265.278 170.077,263.278 171,260.5C 177.514,246.141 184.014,231.807 190.5,217.5 Z M 192.5,230.5 C 196.089,235.498 199.089,240.998 201.5,247C 195.37,247.706 189.37,248.706 183.5,250C 187.188,243.793 190.188,237.293 192.5,230.5 Z"/></g>
<g><path style="opacity:1" fill="#3da6d5" d="M 46.5,285.5 C 151.502,285.167 256.502,285.5 361.5,286.5C 361.291,287.086 360.957,287.586 360.5,288C 256.167,288.667 151.833,288.667 47.5,288C 46.7476,287.329 46.4142,286.496 46.5,285.5 Z"/></g>
</svg>
